<?xml version="1.0" encoding="utf-8"?>
<svg version="1.1" width="96" height="78" id="Capa_1" x="0px" y="0px" viewBox="0 0 54.391 54.391" style="enable-background:new 0 0 54.391 54.391;" xmlns="http://www.w3.org/2000/svg">
  <g>
    <polygon points="0.285,19.392 24.181,49.057 13.342,19.392 &#9;" style="fill: rgb(218, 218, 218);"/>
    <polygon points="15.472,19.392 27.02,50.998 38.795,19.392 &#9;" style="fill: rgb(218, 218, 218);"/>
    <polygon points="29.593,49.823 54.105,19.392 40.929,19.392 &#9;" style="fill: rgb(218, 218, 218);"/>
    <polygon points="44.755,3.392 29.297,3.392 39.896,16.437 &#9;" style="fill: rgb(218, 218, 218);"/>
    <polygon points="38.094,17.392 27.195,3.979 16.297,17.392 &#9;" style="fill: rgb(218, 218, 218);"/>
    <polygon points="25.094,3.392 9.625,3.392 14.424,16.525 &#9;" style="fill: rgb(218, 218, 218);"/>
    <polygon points="7.959,4.658 0,17.392 12.611,17.392 &#9;" style="fill: rgb(218, 218, 218);"/>
    <polygon points="54.391,17.392 46.424,4.645 41.674,17.392 &#9;" style="fill: rgb(218, 218, 218);"/>
  </g>
  <g/>
  <g/>
  <g/>
  <g/>
  <g/>
  <g/>
  <g/>
  <g/>
  <g/>
  <g/>
  <g/>
  <g/>
  <g/>
  <g/>
  <g/>
</svg>