<?xml version="1.0" encoding="utf-8"?>
<svg version="1.1" id="Capa_1" x="0px" y="0px" width="70px" height="99px" viewBox="0 0 595.017 595.017" style="enable-background:new 0 0 595.017 595.017;" xmlns="http://www.w3.org/2000/svg">
  <g>
    <g>
      <path d="M368.294,427.216H226.72c-14.697,0-26.656,9.7-26.656,21.622s11.958,21.622,26.656,21.622h141.575 c14.697,0,26.654-9.7,26.654-21.622S382.994,427.216,368.294,427.216z" style="fill: rgb(24, 207, 171);"/>
      <path d="M394.949,510.644c0-11.922-11.957-21.622-26.654-21.622H226.72c-14.697,0-26.656,9.7-26.656,21.622 s11.958,21.622,26.656,21.622h141.575C382.994,532.266,394.949,522.568,394.949,510.644z" style="fill: rgb(24, 207, 171);"/>
      <path d="M246.717,551.772c-14.697,0-26.655,9.701-26.655,21.622c0,11.922,11.958,21.622,26.655,21.622H348.3 c14.697,0,26.654-9.7,26.654-21.622c0-11.921-11.957-21.622-26.654-21.622H246.717z" style="fill: rgb(24, 207, 171);"/>
      <path d="M404.375,398.06c2.424-4.039,3.041-10.195,3.586-15.63c0.141-1.414,0.273-2.735,0.432-3.88 c6.07-44,20.875-70.044,35.189-95.23c16.32-28.712,31.732-55.833,31.732-105.515C475.312,79.762,395.548,0,297.507,0 c-98.042,0-177.804,79.762-177.804,177.804c0,49.673,15.407,76.791,31.72,105.5c15.297,26.925,31.114,54.762,36.27,104.361 c0.125,11.242,9.318,20.364,20.566,20.364h178.499C393.933,408.032,400.683,404.211,404.375,398.06z M267.868,361.19 c15.141-92.479,37.642-127.645,44.177-136.223c2.916-3.828,2.66-6.386,1.932-7.861c-0.756-1.527-2.326-2.439-4.201-2.439 c-1.23,0-2.592,0.361-4.162,1.105c-9.63,4.565-41.329,23.449-44.93,74.704c-0.003,0.031-0.003,0.064-0.006,0.095 c-8.651-14.122-26.989-50.521-12.604-86.24c13.329-33.097,50.942-57.898,111.798-73.719c0.492-0.128,0.979-0.193,1.449-0.193 c2.555,0,4.477,1.882,4.779,4.682c2.824,26.215,11.424,105.989-19.85,143.064c-9.74,11.549-22.742,17.901-38.648,18.89 c-7.014,0.435-12.3,5.811-12.3,12.509v51.022c0,3.517-2.861,6.377-6.377,6.377h-16.071c-1.634,0-3.045-0.603-3.972-1.691 C267.972,364.204,267.611,362.754,267.868,361.19z" style="fill: rgb(24, 207, 171);"/>
    </g>
  </g>
  <g/>
  <g/>
  <g/>
  <g/>
  <g/>
  <g/>
  <g/>
  <g/>
  <g/>
  <g/>
  <g/>
  <g/>
  <g/>
  <g/>
  <g/>
</svg>